HIERARCHY
ROOT Hips
{
	OFFSET 0.000000 0.000000 0.000000
	CHANNELS 6 Xposition Yposition Zposition Zrotation Yrotation Xrotation 
	JOINT LHipJoint
	{
		OFFSET 0.000000 0.000000 0.000000
		CHANNELS 3 Zrotation Yrotation Xrotation
		JOINT LeftUpLeg
		{
			OFFSET 1.363060 -1.794630 0.839290
			CHANNELS 3 Zrotation Yrotation Xrotation
			JOINT LeftLeg
			{
				OFFSET 2.448110 -6.726130 0.000000
				CHANNELS 3 Zrotation Yrotation Xrotation
				JOINT LeftFoot
				{
					OFFSET 2.562200 -7.039590 0.000000
					CHANNELS 3 Zrotation Yrotation Xrotation
					JOINT LeftToeBase
					{
						OFFSET 0.157640 -0.433110 2.322550
						CHANNELS 3 Zrotation Yrotation Xrotation
						End Site
						{
							OFFSET 0.000000 0.000000 0.000000
						}
					}
				}
			}
		}
	}
	JOINT RHipJoint
	{
		OFFSET 0.000000 0.000000 0.000000
		CHANNELS 3 Zrotation Yrotation Xrotation
		JOINT RightUpLeg
		{
			OFFSET -1.305520 -1.794630 0.839290
			CHANNELS 3 Zrotation Yrotation Xrotation
			JOINT RightLeg
			{
				OFFSET -2.542530 -6.985550 0.000000
				CHANNELS 3 Zrotation Yrotation Xrotation
				JOINT RightFoot
				{
					OFFSET -2.568260 -7.056230 0.000000
					CHANNELS 3 Zrotation Yrotation Xrotation
					JOINT RightToeBase
					{
						OFFSET -0.164730 -0.452590 2.363150
						CHANNELS 3 Zrotation Yrotation Xrotation
						End Site
						{
							OFFSET 0.000000 0.000000 0.000000
						}
					}
				}
			}
		}
	}
}
MOTION
Frames: 19
Frame Time: 0.008333
-1.936894 16.930906 -0.670819 32.920353 77.330744 44.689167 -11.069508 3.300057 -2.340018 -2.440035 11.883401 -8.094850 -1.137006 2.038435 32.239611 0.449122 -1.684119 12.505994 -0.686499 0.000000 -80.647200 9.249599 0.891645 -0.822570 14.692189 -9.255737 -35.124760 1.887791 0.788414 7.691628 -4.581166 -20.238108 -3.574354 176.328200 0.000000 -1.514200
-1.832644 16.948651 -0.580978 31.430944 76.959523 43.178066 -11.161798 3.247653 -2.370628 -1.872523 12.003211 -9.049214 -0.962198 2.162013 34.368427 0.516519 -2.603486 14.656843 -1.130700 0.000001 -79.770100 9.195696 0.814277 -0.799182 14.877034 -8.719806 -34.777734 1.874213 0.727451 8.414746 -4.614487 -20.200977 -4.192682 176.580600 -0.000000 -3.467400
-1.731847 16.966117 -0.488739 30.230261 76.575701 41.962603 -11.228870 3.176492 -2.386700 -1.391679 11.981333 -10.037913 -0.798406 2.270774 36.505882 0.600812 -3.387176 16.647705 -1.579000 0.000000 -78.019000 9.153356 0.752491 -0.775224 15.027458 -8.206752 -34.347780 1.848655 0.692671 8.955082 -4.674339 -20.268360 -4.867601 176.837100 -0.000000 -5.167200
-1.634493 16.983154 -0.394565 29.328403 76.191763 41.049668 -11.272244 3.090369 -2.386443 -1.001411 11.808611 -11.054999 -0.647381 2.367815 38.638859 0.694482 -3.957474 18.388654 -1.971900 -0.000000 -75.536900 9.122549 0.705377 -0.755097 15.142961 -7.741973 -33.839674 1.815644 0.682449 9.307370 -4.749070 -20.401317 -5.559566 177.093200 0.000001 -6.595100
-1.540476 16.999789 -0.298996 28.704526 75.817686 40.415371 -11.294991 2.993296 -2.370198 -0.697536 11.489637 -12.094445 -0.508365 2.456844 40.753101 0.791094 -4.249616 19.817219 -2.251000 -0.000000 -72.487400 9.102830 0.670952 -0.742537 15.226302 -7.343925 -33.259558 1.779706 0.694226 9.473232 -4.826280 -20.558175 -6.229787 177.343000 -0.000000 -7.750000
-1.449633 17.016162 -0.202612 28.316198 75.458735 40.014713 -11.300738 2.888414 -2.340006 -0.470344 11.039924 -13.149234 -0.378893 2.540847 42.830612 0.887076 -4.215909 20.904032 -2.369500 0.000000 -69.206400 9.093589 0.646717 -0.740087 15.281570 -7.022252 -32.616114 1.744752 0.724568 9.462871 -4.894490 -20.699962 -6.844551 177.579200 -0.000000 -8.642000
-1.361805 17.032514 -0.105948 28.109486 75.113890 39.791645 -11.292995 2.777871 -2.299199 -0.307621 10.483117 -14.210624 -0.256309 2.621626 44.850931 0.981553 -3.834533 21.647116 -2.301400 -0.000000 -65.962700 9.094154 0.630059 -0.748759 15.313007 -6.776796 -31.919186 1.713663 0.769556 9.293688 -4.944259 -20.794251 -7.377569 177.794400 0.000000 -9.298000
-1.276802 17.049111 -0.009425 28.021824 74.776546 39.682751 -11.274743 2.662896 -2.251979 -0.196016 9.849124 -15.268140 -0.138675 2.699691 46.792155 1.075774 -3.110277 22.066572 -2.043800 -0.000000 -62.978900 9.103724 0.618367 -0.767978 15.325032 -6.598601 -31.179299 1.688228 0.825058 8.989547 -4.969285 -20.818610 -7.812945 177.982500 -0.000000 -9.759100
-1.194439 17.066180 0.086632 27.990359 74.434716 39.624882 -11.248077 2.544084 -2.202922 -0.123103 9.171130 -16.310295 -0.025368 2.774420 48.629630 1.172279 -2.070531 22.199786 -1.613800 0.000000 -60.452000 9.121573 0.609478 -0.795555 15.320962 -6.470664 -30.406193 1.668926 0.887174 8.577486 -4.966730 -20.761938 -8.144960 178.140200 0.000000 -10.076600
-1.114537 17.083860 0.182069 27.955438 74.073210 39.559183 -11.214027 2.421967 -2.157391 -0.077534 8.485988 -17.328099 0.082810 2.845192 50.345284 1.272460 -0.767499 22.075775 -1.045401 -0.000000 -58.321400 9.147163 0.601694 -0.828035 15.303895 -6.371672 -29.611285 1.655428 0.952135 8.088703 -4.936964 -20.622080 -8.380411 178.268500 -0.000000 -10.313599
-1.036901 17.102247 0.276860 27.867583 73.674998 39.437651 -11.172711 2.297136 -2.119518 -0.051666 7.826147 -18.311838 0.184353 2.910460 51.916413 1.378099 0.737692 21.743228 -0.380700 0.000000 -56.631099 9.180256 0.593935 -0.861207 15.275309 -6.278304 -28.804020 1.646460 1.016875 7.552510 -4.883075 -20.405945 -8.533498 178.371100 0.000000 -10.528800
-0.961396 17.121238 0.371102 27.691652 73.223627 39.226283 -11.123657 2.170654 -2.092318 -0.040467 7.219785 -19.253782 0.277305 2.968683 53.324932 1.489371 2.373390 21.248025 0.334400 -0.000001 -55.328200 9.220911 0.585358 -0.890167 15.235471 -6.168019 -27.992210 1.640164 1.078965 6.995470 -4.809965 -20.126484 -8.623224 178.453800 -0.000001 -10.769599
-0.887906 17.140666 0.465039 27.410491 72.704306 38.910817 -11.065808 2.043687 -2.077834 -0.041726 6.687747 -20.150013 0.359695 3.018440 54.557200 1.604935 4.064743 20.635800 1.056200 0.000000 -54.312000 9.269502 0.575895 -0.910810 15.184028 -6.023101 -27.184851 1.634824 1.136609 6.441075 -4.722958 -19.796606 -8.673470 178.524599 0.000000 -11.078601
-0.816250 17.160245 0.558889 27.023253 72.105982 38.493328 -10.998266 1.917690 -2.075996 -0.055626 6.240904 -20.997868 0.430033 3.058195 55.602808 1.722626 5.742501 19.957690 1.748500 -0.000000 -53.549200 9.326376 0.565578 -0.919393 15.119595 -5.830640 -26.388713 1.628792 1.188907 5.905503 -4.627199 -19.429728 -8.705530 178.590200 0.000000 -11.477700
-0.746392 17.179590 0.652921 26.544530 71.421886 37.989925 -10.920500 1.794390 -2.085690 -0.082778 5.882936 -21.798482 0.487363 3.087289 56.461462 1.838093 7.340018 19.245152 2.381100 -0.000000 -52.808400 9.391874 0.554329 -0.913060 15.040889 -5.583999 -25.608255 1.620791 1.235560 5.398306 -4.526688 -19.036554 -8.735798 178.655600 -0.000000 -11.964700
-0.678200 17.198291 0.747300 25.997293 70.650280 37.425938 -10.832446 1.675332 -2.104065 -0.125039 5.607616 -22.553984 0.531448 3.105007 57.134602 1.947512 8.807962 18.535501 2.936200 0.000000 -52.000600 9.466075 0.542253 -0.890524 14.946666 -5.283860 -24.847750 1.610342 1.276802 4.923320 -4.423706 -18.622586 -8.775413 178.724300 0.000000 -12.523800
-0.611591 17.215992 0.842156 25.408136 69.794129 36.830730 -10.734483 1.561448 -2.126650 -0.183662 5.398530 -23.267011 0.562717 3.110454 57.623380 2.048795 10.120195 17.877674 3.411400 -0.000000 -51.257800 9.548600 0.529711 -0.852315 14.836771 -4.936477 -24.110529 1.597765 1.313329 4.479144 -4.318729 -18.188038 -8.829377 178.797600 0.000000 -13.135000
-0.546462 17.232294 0.937428 24.801897 68.860927 36.229407 -10.627785 1.454108 -2.149327 -0.258786 5.239336 -23.942712 0.581998 3.104333 57.941302 2.138315 11.255784 17.277024 3.804600 -0.000000 -50.366700 9.638880 0.516354 -0.799769 14.711907 -4.553436 -23.397666 1.584064 1.345727 4.062009 -4.210321 -17.727950 -8.894672 178.874500 -0.000000 -13.754800
-0.482787 17.246962 1.033018 24.197719 67.860660 35.641392 -10.513779 1.353955 -2.167336 -0.349503 5.108511 -24.584950 0.590502 3.087069 58.098556 2.215166 12.216890 16.749610 4.124600 0.000000 -49.366100 9.735832 0.502168 -0.735698 14.574474 -4.149163 -22.711015 1.570910 1.374672 3.667046 -4.095946 -17.233661 -8.965004 178.953301 0.000000 -14.347300
